<svg width="50" height="50" viewBox="0 0 50 50" fill="none" xmlns="http://www.w3.org/2000/svg">
<path d="M37.5152 30.6829C38.1006 31.2357 39.19 31.3658 40.7835 31.0731C42.377 30.7804 43.8405 30.1463 45.1738 29.1707C46.7998 31.7398 48.0112 34.1544 48.8079 36.4146C49.6047 38.6747 49.9868 40.6178 49.9544 42.2438C49.9219 43.8698 49.7024 45.2438 49.2958 46.3658C48.8893 47.4877 48.312 48.4064 47.5641 49.1219C46.0682 50.6503 43.7023 50.1544 40.4666 47.6341C37.2308 45.1137 31.873 40.0975 24.3933 32.5853L20.8811 29.0731C13.0437 21.2357 8.34447 16.4878 6.78349 14.8292C2.3282 9.98369 0.0680354 6.53654 0.00299464 4.48777C-0.0295257 3.67476 0.246897 2.97557 0.832264 2.39021C1.51519 1.70728 2.37698 1.16257 3.41763 0.756063C4.45828 0.349559 5.71845 0.105657 7.19813 0.0243561C8.6778 -0.0569446 10.4502 0.219478 12.5152 0.853623C14.5803 1.48777 16.7835 2.47151 19.125 3.80484C18.8648 4.16256 18.6859 4.3902 18.5884 4.48777C17.7429 5.46337 16.7591 6.34142 15.6372 7.12191C14.5152 7.9024 13.4827 8.4715 12.5396 8.82922C12.8973 9.12191 13.442 9.29264 14.1737 9.34142C14.9055 9.3902 15.6941 9.3089 16.5396 9.09752C17.3851 8.88613 18.2551 8.52841 19.1494 8.02435C20.0437 7.52028 20.816 6.91053 21.4664 6.19508C21.4664 6.16256 21.6128 5.95118 21.9055 5.56094C24.9299 7.57719 28.1331 10.1626 31.5152 13.317C31.4827 13.317 31.4177 13.3902 31.3201 13.5365C31.2225 13.6829 31.1412 13.7886 31.0762 13.8536C30.1982 14.8292 29.2063 15.7073 28.1006 16.4878C26.9949 17.2682 25.9705 17.8373 25.0274 18.1951C25.3851 18.4877 25.9299 18.6585 26.6616 18.7073C27.3933 18.756 28.1738 18.6747 29.003 18.4634C29.8323 18.252 30.6941 17.8943 31.5884 17.3902C32.4827 16.8861 33.2551 16.2926 33.9055 15.6097L34.0274 15.7317L34.1494 15.8536C37.8242 19.5284 40.8974 23.0894 43.3689 26.5365C41.4502 28.5853 39.499 29.9674 37.5152 30.6829Z" fill="black"/>
</svg>
