<svg width="25" height="26" viewBox="0 0 25 26" fill="none" xmlns="http://www.w3.org/2000/svg">
<path d="M12.5 3C15.1522 3 17.6957 4.05357 19.5711 5.92893C21.4464 7.8043 22.5 10.3478 22.5 13C22.5 15.6522 21.4464 18.1957 19.5711 20.0711C17.6957 21.9464 15.1522 23 12.5 23C9.84784 23 7.3043 21.9464 5.42893 20.0711C3.55357 18.1957 2.5 15.6522 2.5 13C2.5 10.3478 3.55357 7.8043 5.42893 5.92893C7.3043 4.05357 9.84784 3 12.5 3ZM12.5 4.25C11.3509 4.25 10.2131 4.47633 9.15152 4.91605C8.08992 5.35578 7.12533 6.0003 6.31282 6.81282C5.5003 7.62533 4.85578 8.58992 4.41605 9.65152C3.97633 10.7131 3.75 11.8509 3.75 13C3.75 14.1491 3.97633 15.2869 4.41605 16.3485C4.85578 17.4101 5.5003 18.3747 6.31282 19.1872C7.12533 19.9997 8.08992 20.6442 9.15152 21.0839C10.2131 21.5237 11.3509 21.75 12.5 21.75C14.8206 21.75 17.0462 20.8281 18.6872 19.1872C20.3281 17.5462 21.25 15.3206 21.25 13C21.25 10.6794 20.3281 8.45376 18.6872 6.81282C17.0462 5.17187 14.8206 4.25 12.5 4.25ZM11.875 6.75C12.0213 6.74995 12.1629 6.80121 12.2753 6.89486C12.3877 6.98851 12.4637 7.11861 12.49 7.2625L12.5 7.375V13H15.625C15.7812 12.9997 15.9318 13.0579 16.0472 13.1631C16.1626 13.2684 16.2345 13.413 16.2486 13.5685C16.2627 13.7241 16.2181 13.8793 16.1235 14.0035C16.0289 14.1278 15.8912 14.2122 15.7375 14.24L15.625 14.25H11.875C11.7287 14.25 11.5871 14.1988 11.4747 14.1051C11.3623 14.0115 11.2863 13.8814 11.26 13.7375L11.25 13.625V7.375C11.25 7.20924 11.3158 7.05027 11.4331 6.93306C11.5503 6.81585 11.7092 6.75 11.875 6.75Z" fill="#5E5E5E"/>
</svg>
