<svg width="20" height="20" viewBox="0 0 20 20" fill="none" xmlns="http://www.w3.org/2000/svg">
<path d="M18.3333 7.17325V13.9583C18.3333 14.65 18.0687 15.3156 17.5936 15.8184C17.1185 16.3213 16.469 16.6233 15.7783 16.6624L15.625 16.6666H4.37496C3.68318 16.6666 3.0176 16.402 2.51477 15.9269C2.01193 15.4518 1.70996 14.8023 1.67079 14.1116L1.66663 13.9583V7.17325L9.70996 11.3866C9.79944 11.4335 9.89895 11.4579 9.99996 11.4579C10.101 11.4579 10.2005 11.4335 10.29 11.3866L18.3333 7.17325ZM4.37496 3.33325H15.625C16.2963 3.33317 16.9437 3.58241 17.4417 4.03264C17.9396 4.48287 18.2526 5.10199 18.32 5.76992L9.99996 10.1283L1.67996 5.76992C1.74456 5.12851 2.03583 4.53118 2.50142 4.0853C2.967 3.63943 3.57636 3.37424 4.21996 3.33742L4.37496 3.33325H15.625H4.37496Z" fill="white"/>
</svg>
