<svg width="40" height="30" viewBox="0 0 40 30" fill="none" xmlns="http://www.w3.org/2000/svg">
<path d="M39 10.2452V23.9062V23.9063C39.0001 25.1868 38.4781 26.4315 37.5203 27.3818C36.5636 28.3311 35.2446 28.9128 33.8282 28.9913L33.4873 29H6.5H6.49994C5.07599 29.0001 3.7166 28.4888 2.6986 27.5871C1.68643 26.6905 1.09019 25.4793 1.0091 24.2058L1 23.8918V10.2452L18.8632 19.0176L18.8632 19.0176C19.217 19.1914 19.6069 19.2805 20 19.2805C20.3931 19.2805 20.783 19.1914 21.1368 19.0176L21.1368 19.0176L39 10.2452ZM33.5 1H33.5001C34.8818 0.999844 36.2046 1.48128 37.2135 2.33646C38.0357 3.03342 38.5999 3.93552 38.8517 4.91661L20 14.1747L1.14818 4.91657C1.38785 3.98258 1.91069 3.11935 2.67157 2.43622C3.61048 1.59324 4.84883 1.08248 6.16793 1.00869L6.5126 1H33.5Z" fill="white" stroke="black" stroke-width="2"/>
</svg>
