<svg width="20" height="20" viewBox="0 0 20 20" fill="none" xmlns="http://www.w3.org/2000/svg">
<path d="M18.3333 7.17334V13.9583C18.3334 14.6501 18.0687 15.3157 17.5936 15.8185C17.1185 16.3214 16.469 16.6233 15.7783 16.6625L15.625 16.6667H4.37499C3.68321 16.6667 3.01763 16.402 2.5148 15.9269C2.01196 15.4519 1.70999 14.8023 1.67082 14.1117L1.66666 13.9583V7.17334L9.70999 11.3867C9.79947 11.4335 9.89898 11.458 9.99999 11.458C10.101 11.458 10.2005 11.4335 10.29 11.3867L18.3333 7.17334ZM4.37499 3.33334H15.625C16.2963 3.33326 16.9437 3.58251 17.4417 4.03273C17.9396 4.48296 18.2527 5.10208 18.32 5.77001L9.99999 10.1283L1.67999 5.77001C1.74459 5.1286 2.03586 4.53127 2.50145 4.0854C2.96703 3.63952 3.57639 3.37433 4.21999 3.33751L4.37499 3.33334H15.625H4.37499Z" fill="#5E5E5E"/>
</svg>
