<svg width="20" height="20" viewBox="0 0 20 20" fill="none" xmlns="http://www.w3.org/2000/svg">
<path d="M17.4558 6.92083C17.4474 6.28968 17.3293 5.66481 17.1067 5.07416C16.9136 4.57595 16.6188 4.12349 16.241 3.74569C15.8632 3.36788 15.4107 3.07304 14.9125 2.87999C14.3294 2.66113 13.7135 2.54278 13.0908 2.52999C12.2892 2.49416 12.035 2.48416 10 2.48416C7.965 2.48416 7.70416 2.48416 6.90833 2.52999C6.28596 2.54287 5.67029 2.66122 5.0875 2.87999C4.58921 3.0729 4.13668 3.3677 3.75886 3.74552C3.38103 4.12335 3.08624 4.57588 2.89333 5.07416C2.67402 5.65677 2.55593 6.27259 2.54416 6.89499C2.50833 7.69749 2.4975 7.95166 2.4975 9.98666C2.4975 12.0217 2.4975 12.2817 2.54416 13.0783C2.55666 13.7017 2.67416 14.3167 2.89333 14.9008C3.08656 15.399 3.38158 15.8513 3.75953 16.229C4.13748 16.6066 4.59005 16.9013 5.08833 17.0942C5.66953 17.3218 6.28531 17.4486 6.90916 17.4692C7.71166 17.505 7.96583 17.5158 10.0008 17.5158C12.0358 17.5158 12.2967 17.5158 13.0925 17.4692C13.7151 17.4569 14.3311 17.3388 14.9142 17.12C15.4122 16.9267 15.8646 16.6318 16.2424 16.254C16.6201 15.8763 16.9151 15.4239 17.1083 14.9258C17.3275 14.3425 17.445 13.7275 17.4575 13.1033C17.4933 12.3017 17.5042 12.0475 17.5042 10.0117C17.5025 7.97666 17.5025 7.71833 17.4558 6.92083ZM9.995 13.835C7.86666 13.835 6.1425 12.1108 6.1425 9.98249C6.1425 7.85416 7.86666 6.12999 9.995 6.12999C11.0167 6.12999 11.9966 6.53588 12.7191 7.25837C13.4416 7.98085 13.8475 8.96075 13.8475 9.98249C13.8475 11.0042 13.4416 11.9841 12.7191 12.7066C11.9966 13.4291 11.0167 13.835 9.995 13.835ZM14.0008 6.88583C13.5033 6.88583 13.1025 6.48416 13.1025 5.98749C13.1025 5.86958 13.1257 5.75282 13.1708 5.64388C13.216 5.53494 13.2821 5.43595 13.3655 5.35257C13.4489 5.26919 13.5479 5.20305 13.6568 5.15793C13.7657 5.1128 13.8825 5.08958 14.0004 5.08958C14.1183 5.08958 14.2351 5.1128 14.344 5.15793C14.453 5.20305 14.552 5.26919 14.6353 5.35257C14.7187 5.43595 14.7849 5.53494 14.83 5.64388C14.8751 5.75282 14.8983 5.86958 14.8983 5.98749C14.8983 6.48416 14.4967 6.88583 14.0008 6.88583Z" fill="#5E5E5E"/>
<path d="M9.99499 12.485C11.3771 12.485 12.4975 11.3646 12.4975 9.98251C12.4975 8.60042 11.3771 7.48001 9.99499 7.48001C8.6129 7.48001 7.49249 8.60042 7.49249 9.98251C7.49249 11.3646 8.6129 12.485 9.99499 12.485Z" fill="#5E5E5E"/>
</svg>
