<svg width="46" height="48" viewBox="0 0 46 48" fill="none" xmlns="http://www.w3.org/2000/svg">
<path d="M22.8135 11.9617C21.6762 11.9617 20.5645 12.3136 19.6189 12.9729C18.6734 13.6322 17.9364 14.5693 17.5012 15.6656C17.066 16.762 16.9521 17.9684 17.174 19.1323C17.3958 20.2962 17.9435 21.3653 18.7476 22.2044C19.5518 23.0435 20.5763 23.6149 21.6917 23.8464C22.8071 24.078 23.9632 23.9591 25.0139 23.505C26.0646 23.0509 26.9626 22.2818 27.5944 21.2952C28.2262 20.3085 28.5635 19.1484 28.5635 17.9617C28.5617 16.371 27.9554 14.8459 26.8774 13.7211C25.7995 12.5963 24.3379 11.9635 22.8135 11.9617V11.9617ZM22.8135 20.9617C22.2449 20.9617 21.689 20.7858 21.2162 20.4561C20.7434 20.1265 20.3749 19.658 20.1573 19.1098C19.9397 18.5616 19.8828 17.9584 19.9937 17.3765C20.1047 16.7945 20.3785 16.26 20.7805 15.8404C21.1826 15.4209 21.6949 15.1351 22.2526 15.0194C22.8103 14.9036 23.3884 14.963 23.9137 15.1901C24.439 15.4172 24.888 15.8017 25.204 16.295C25.5199 16.7884 25.6885 17.3684 25.6885 17.9617C25.6876 18.7571 25.3844 19.5196 24.8454 20.082C24.3065 20.6444 23.5757 20.9608 22.8135 20.9617V20.9617Z" fill="black"/>
<path d="M33.8626 6.42328C31.1307 3.57332 27.484 1.88033 23.6262 1.67105C19.7684 1.46178 15.973 2.75106 12.9726 5.29005C9.97226 7.82905 7.97953 11.4378 7.37906 15.4197C6.77859 19.4017 7.61294 23.4746 9.72109 26.8524L20.5838 44.2537C20.8256 44.6409 21.1561 44.959 21.5454 45.1792C21.9348 45.3994 22.3707 45.5148 22.8135 45.5148C23.2564 45.5148 23.6923 45.3994 24.0816 45.1792C24.471 44.959 24.8015 44.6409 25.0432 44.2537L35.9063 26.8524C37.8624 23.719 38.7269 19.9792 38.3548 16.2599C37.9828 12.5405 36.3967 9.06758 33.8626 6.42328V6.42328ZM33.4974 25.2149L22.8136 42.329L12.1296 25.2149C8.85931 19.9762 9.56072 12.9656 13.7974 8.54456C14.9814 7.30904 16.387 6.32897 17.934 5.6603C19.481 4.99164 21.1391 4.64748 22.8136 4.64748C24.488 4.64748 26.1461 4.99164 27.6931 5.6603C29.2401 6.32897 30.6457 7.30904 31.8297 8.54456C36.0664 12.9656 36.7677 19.9762 33.4974 25.2149Z" fill="black"/>
</svg>
