<svg width="50" height="50" viewBox="0 0 50 50" fill="none" xmlns="http://www.w3.org/2000/svg">
<path d="M12.4121 14.3066C12.5391 15.0586 13.1934 15.625 13.9746 15.625H15.5859C16.543 15.625 17.3047 14.7949 17.1777 13.8672C16.8066 11.1133 15.5762 8.57422 13.6035 6.57227C12.1973 5.13672 11.2988 3.32031 11.0254 1.34766C10.918 0.576172 10.2539 0 9.45312 0H7.85156C6.89453 0 6.15234 0.830078 6.25977 1.75781C6.64062 4.87305 8.01758 7.74414 10.2246 10C11.3965 11.1914 12.1484 12.6855 12.4121 14.3066ZM23.3496 14.3066C23.4766 15.0586 24.1309 15.625 24.9121 15.625H26.5234C27.4805 15.625 28.2422 14.7949 28.1152 13.8672C27.7441 11.1133 26.5137 8.57422 24.541 6.57227C23.1348 5.13672 22.2363 3.32031 21.9629 1.34766C21.8555 0.576172 21.1914 0 20.3906 0H18.7891C17.832 0 17.0801 0.830078 17.1973 1.75781C17.5781 4.87305 18.9551 7.74414 21.1621 10C22.334 11.1914 23.0859 12.6855 23.3496 14.3066ZM39.0625 18.75H3.125C1.39648 18.75 0 20.1465 0 21.875V40.625C0 45.8008 4.19922 50 9.375 50H28.125C33.3008 50 37.5 45.8008 37.5 40.625H39.0625C45.0977 40.625 50 35.7227 50 29.6875C50 23.6523 45.0977 18.75 39.0625 18.75ZM39.0625 34.375H37.5V25H39.0625C41.6504 25 43.75 27.0996 43.75 29.6875C43.75 32.2754 41.6504 34.375 39.0625 34.375Z" fill="black"/>
</svg>
