<svg width="21" height="20" viewBox="0 0 21 20" fill="none" xmlns="http://www.w3.org/2000/svg">
<path d="M11.1354 0.253662C7.12731 0.253662 3.16669 2.92554 3.16669 7.24991C3.16669 9.99991 4.71356 11.5624 5.65106 11.5624C6.03794 11.5624 6.26044 10.4843 6.26044 10.1799C6.26044 9.81679 5.33481 9.04304 5.33481 7.53116C5.33481 4.39054 7.72544 2.16366 10.8192 2.16366C13.4792 2.16366 15.4479 3.67554 15.4479 6.45304C15.4479 8.52741 14.6161 12.418 11.9204 12.418C10.9479 12.418 10.1154 11.7149 10.1154 10.7074C10.1154 9.23054 11.1467 7.80116 11.1467 6.27741C11.1467 3.69179 7.47856 4.16054 7.47856 7.28554C7.47856 7.94179 7.56044 8.66804 7.85356 9.26616C7.31419 11.5868 6.21294 15.0437 6.21294 17.4343C6.21294 18.1724 6.31856 18.8993 6.38856 19.6374C6.52106 19.7862 6.45481 19.7705 6.65794 19.6962C8.62669 17.0005 8.55669 16.4737 9.44731 12.9462C9.92794 13.8605 11.1698 14.3524 12.1542 14.3524C16.3023 14.3524 18.1661 10.3093 18.1661 6.66491C18.1661 2.78616 14.8142 0.254912 11.1348 0.254912L11.1354 0.253662Z" fill="white"/>
</svg>
