<svg width="20" height="20" viewBox="0 0 20 20" fill="none" xmlns="http://www.w3.org/2000/svg">
<path d="M10.4687 0.253754C6.46062 0.253754 2.5 2.92563 2.5 7.25C2.5 10 4.04687 11.5625 4.98437 11.5625C5.37125 11.5625 5.59375 10.4844 5.59375 10.18C5.59375 9.81688 4.66812 9.04313 4.66812 7.53125C4.66812 4.39063 7.05875 2.16375 10.1525 2.16375C12.8125 2.16375 14.7812 3.67563 14.7812 6.45313C14.7812 8.5275 13.9494 12.4181 11.2537 12.4181C10.2812 12.4181 9.44875 11.715 9.44875 10.7075C9.44875 9.23063 10.48 7.80125 10.48 6.2775C10.48 3.69188 6.81187 4.16063 6.81187 7.28563C6.81187 7.94188 6.89375 8.66813 7.18687 9.26625C6.6475 11.5869 5.54625 15.0438 5.54625 17.4344C5.54625 18.1725 5.65187 18.8994 5.72187 19.6375C5.85437 19.7863 5.78813 19.7706 5.99125 19.6963C7.96 17.0006 7.89 16.4738 8.78062 12.9463C9.26125 13.8606 10.5031 14.3525 11.4875 14.3525C15.6356 14.3525 17.4994 10.3094 17.4994 6.665C17.4994 2.78625 14.1475 0.255004 10.4681 0.255004L10.4687 0.253754Z" fill="#5E5E5E"/>
</svg>
