<svg width="26" height="23" viewBox="0 0 26 23" fill="none" xmlns="http://www.w3.org/2000/svg">
<g clip-path="url(#clip0)">
<path d="M23.4219 13.5358L25.4737 4.19206C25.6218 3.51743 25.1263 2.875 24.4579 2.875H7.41007L7.01224 0.862051C6.91311 0.360318 6.48655 0 5.99171 0H1.54167C0.966363 0 0.5 0.482686 0.5 1.07812V1.79688C0.5 2.39231 0.966363 2.875 1.54167 2.875H4.57478L7.62374 18.3027C6.89431 18.7369 6.40278 19.551 6.40278 20.4844C6.40278 21.8737 7.49097 23 8.83333 23C10.1757 23 11.2639 21.8737 11.2639 20.4844C11.2639 19.7803 10.9841 19.1441 10.5337 18.6875H19.6329C19.1826 19.1441 18.9028 19.7803 18.9028 20.4844C18.9028 21.8737 19.991 23 21.3333 23C22.6757 23 23.7639 21.8737 23.7639 20.4844C23.7639 19.4884 23.2045 18.6277 22.3933 18.2201L22.6327 17.1296C22.7809 16.4549 22.2854 15.8125 21.617 15.8125H9.96688L9.68281 14.375H22.4061C22.8925 14.375 23.3141 14.0267 23.4219 13.5358Z" fill="#2C2C2C"/>
</g>
<defs>
<clipPath id="clip0">
<rect width="25" height="23" fill="white" transform="translate(0.5)"/>
</clipPath>
</defs>
</svg>
