<svg width="21" height="20" viewBox="0 0 21 20" fill="none" xmlns="http://www.w3.org/2000/svg">
<path d="M10.7758 0.016875C11.8665 0 12.9508 0.01 14.034 0C14.0996 1.27562 14.5583 2.575 15.4921 3.47688C16.424 4.40125 17.7421 4.82438 19.0246 4.9675V8.32312C17.8227 8.28375 16.6152 8.03375 15.5246 7.51625C15.0496 7.30125 14.6071 7.02437 14.174 6.74125C14.1683 9.17625 14.184 11.6081 14.1583 14.0331C14.0933 15.1981 13.709 16.3575 13.0315 17.3175C11.9415 18.9156 10.0496 19.9575 8.10645 19.99C6.91458 20.0581 5.72395 19.7331 4.70833 19.1344C3.0252 18.1419 1.84083 16.325 1.66833 14.375C1.6466 13.962 1.64326 13.5483 1.65833 13.135C1.80833 11.5494 2.5927 10.0325 3.8102 9.00062C5.1902 7.79875 7.12333 7.22625 8.93333 7.565C8.9502 8.79938 8.90083 10.0325 8.90083 11.2669C8.07395 10.9994 7.1077 11.0744 6.3852 11.5763C5.85661 11.9245 5.45714 12.4368 5.24833 13.0344C5.07583 13.4569 5.1252 13.9263 5.1352 14.375C5.33333 15.7425 6.64833 16.8919 8.05208 16.7675C8.9827 16.7575 9.87458 16.2175 10.3596 15.4269C10.5165 15.15 10.6921 14.8669 10.7015 14.5413C10.7833 13.0506 10.7508 11.5662 10.7608 10.0756C10.7677 6.71625 10.7508 3.36625 10.7765 0.0175L10.7758 0.016875Z" fill="white"/>
</svg>
