<svg width="20" height="20" viewBox="0 0 20 20" fill="none" xmlns="http://www.w3.org/2000/svg">
<path d="M10.4425 0.016875C11.5331 0 12.6175 0.01 13.7006 0C13.7662 1.27562 14.225 2.575 15.1587 3.47688C16.0906 4.40125 17.4087 4.82438 18.6912 4.9675V8.32312C17.4894 8.28375 16.2819 8.03375 15.1912 7.51625C14.7162 7.30125 14.2737 7.02437 13.8406 6.74125C13.835 9.17625 13.8506 11.6081 13.825 14.0331C13.76 15.1981 13.3756 16.3575 12.6981 17.3175C11.6081 18.9156 9.71624 19.9575 7.77311 19.99C6.58124 20.0581 5.39061 19.7331 4.37499 19.1344C2.69186 18.1419 1.50749 16.325 1.33499 14.375C1.31326 13.962 1.30992 13.5483 1.32499 13.135C1.47499 11.5494 2.25936 10.0325 3.47686 9.00062C4.85686 7.79875 6.78999 7.22625 8.59999 7.565C8.61686 8.79938 8.56749 10.0325 8.56749 11.2669C7.74061 10.9994 6.77436 11.0744 6.05186 11.5763C5.52326 11.9245 5.1238 12.4368 4.91499 13.0344C4.74249 13.4569 4.79186 13.9263 4.80186 14.375C4.99999 15.7425 6.31499 16.8919 7.71874 16.7675C8.64936 16.7575 9.54123 16.2175 10.0262 15.4269C10.1831 15.15 10.3587 14.8669 10.3681 14.5413C10.45 13.0506 10.4175 11.5662 10.4275 10.0756C10.4344 6.71625 10.4175 3.36625 10.4431 0.0175L10.4425 0.016875Z" fill="#5E5E5E"/>
</svg>
